# xmcd
#
# Track frame offsets:
#	150
#	15901
#	32489
#	45420
#	61009
#	81145
#	95442
#	108207
#	124138
#	142433
#	155644
#	173973
#	192858
#	208844
#
# Disc length: 2963 seconds
#
# Revision: 1
# Processed by: cddbd v1.5.2PL0 Copyright (c) Steve Scherf et al.
# Submitted via: audiograbber 1.83.01
#
DISCID=b60b910e
DTITLE=Mateus and Cristiano - Mateus and Cristiano
DYEAR=1900
DGENRE=Sertanejo
TTITLE0=A Falta De Você
TTITLE1=Atenda O Celular
TTITLE2=Olha Nóis Aqui De Novo
TTITLE3=Liga Não
TTITLE4=O Que Será De Mim
TTITLE5=Cadê O Nosso Amor
TTITLE6=Aqui Estou
TTITLE7=Menina
TTITLE8=Microondas
TTITLE9=Ripa Na Chulipa
TTITLE10=O Mais Importante É O Verdadeiro Amor
TTITLE11=Romaria
TTITLE12=Nunca Vou Dizer Não
TTITLE13=Noite Enluarada
EXTD=
EXTT0=
EXTT1=
EXTT2=
EXTT3=
EXTT4=
EXTT5=
EXTT6=
EXTT7=
EXTT8=
EXTT9=
EXTT10=
EXTT11=
EXTT12=
EXTT13=
PLAYORDER=
